<?xml version="1.0" encoding="utf-8"?>
<!-- Generator: Adobe Illustrator 24.0.2, SVG Export Plug-In . SVG Version: 6.00 Build 0)  -->
<svg version="1.1" id="Layer_1" xmlns="http://www.w3.org/2000/svg" xmlns:xlink="http://www.w3.org/1999/xlink" x="0px" y="0px"
	 viewBox="0 0 1920 1080" style="enable-background:new 0 0 1920 1080;" xml:space="preserve">
<style type="text/css">
	.st0{fill:#FFFFFF;stroke:#000000;stroke-width:5;stroke-miterlimit:10;}
	.st1{fill:#FF0000;stroke:#000000;stroke-width:3;stroke-miterlimit:10;}
	.st2{fill:#754C24;stroke:#000000;stroke-width:3;stroke-miterlimit:10;}
	.st3{fill:#FFFFFF;stroke:#000000;stroke-miterlimit:10;}
	.st4{stroke:#000000;stroke-width:4;stroke-miterlimit:10;}
	.st5{fill:none;stroke:#000000;stroke-width:4;stroke-miterlimit:10;}
	.st6{stroke:#000000;stroke-width:3;stroke-miterlimit:10;}
	.st7{fill:#FF00FF;stroke:#000000;stroke-width:3;stroke-miterlimit:10;}
	.st8{fill:none;stroke:#000000;stroke-width:5;stroke-miterlimit:10;}
	.st9{fill:#754C24;stroke:#000000;stroke-width:5;stroke-miterlimit:10;}
</style>
<g>
	<g>
		<path class="st0" d="M576.5,416.5c0,0-55.39,22.51-81.7,72.26l6.7,123.74c0,0,53-70,109-77h29
			C639.5,535.5,586.5,448.5,576.5,416.5z"/>
		<path class="st0" d="M494.5,488.5c0,0-62-50-109-21l-21,103c0,0,71-21,104,8s30,34,30,34L494.5,488.5z"/>
	</g>
	<path class="st1" d="M437.5,394.5c0,0,40,18,60-9l42,48c0,0-45,39-42,54c0,0-19-18-32-18l-39-12L437.5,394.5z"/>
	<ellipse class="st2" cx="464.56" cy="357.75" rx="47.56" ry="45.25"/>
	<path class="st3" d="M417.5,364.5"/>
	<ellipse class="st4" cx="452" cy="360.75" rx="1" ry="2.75"/>
	<path class="st5" d="M417,385"/>
	<path class="st5" d="M441,372c0,0,23,32,47-3"/>
	<ellipse class="st4" cx="473.53" cy="360.35" rx="1" ry="2.75"/>
	<path class="st6" d="M429.52,327.16c0,0,1.98,20.34,3.98,18.34s1,8,7,0c0,0,12,3,11,0c0,0,10,1,9-8c0,0,10,13,12,7c0,0,5-1,5-7
		c0,0,4,7,6,0c0,0,12,2,5-10c0,0,11,13,8,0S451.53,303.83,429.52,327.16z"/>
	<path class="st2" d="M517.74,351.5l-5.26-7c0,0-0.75,24,3.01,20C519.25,360.5,517.74,351.5,517.74,351.5z"/>
	<path class="st2" d="M410.58,357.9l4.21-7.68c0,0,4.18,23.65-0.11,20.22C410.38,367.02,410.58,357.9,410.58,357.9z"/>
	<path class="st7" d="M771.5,459.5"/>
	<path class="st8" d="M437.5,394.5c-0.11,0.22-23.16,36.31-20,41c0,0-6,22,0,24"/>
	<path class="st8" d="M500.5,385.5c0,0,38-6,44,18c0,0,3,20,0,38l-5,22"/>
	<path class="st8" d="M385.5,540.5c0,0,75-6,97,23"/>
	<path class="st8" d="M389.13,521.22c0,0,75-6,97,23"/>
	<path class="st8" d="M392.13,503.22c0,0,75-6,97,23"/>
	<path class="st8" d="M392.13,488.22c0,0,75-6,97,23"/>
	<path class="st8" d="M601.08,517.03c0,0-74.28,11.96-88.78,45.35"/>
	<path class="st8" d="M595.87,494.53c0,0-74.28,11.96-88.78,45.35"/>
	<path class="st8" d="M589.87,471.53c0,0-74.28,11.96-88.78,45.35"/>
	<path class="st8" d="M577.46,457.87c0,0-63.9,10.29-76.37,39.01"/>
	<path class="st9" d="M437.5,459.5c0,0,16-10,26,0S441.5,483.5,437.5,459.5z"/>
	<path class="st9" d="M542.33,458.29c0,0,8.73,16.73-2.01,25.92C529.58,493.41,518.1,460.43,542.33,458.29z"/>
</g>
</svg>
