<svg id="Layer_1" data-name="Layer 1" xmlns="http://www.w3.org/2000/svg" viewBox="0 0 282.73 310.07"><defs><style>.cls-1,.cls-4{fill:#fff;}.cls-1,.cls-10,.cls-2,.cls-3,.cls-4,.cls-5,.cls-6,.cls-7,.cls-8,.cls-9{stroke:#000;stroke-miterlimit:10;}.cls-1,.cls-10,.cls-9{stroke-width:5px;}.cls-2{fill:red;}.cls-2,.cls-3,.cls-7,.cls-8{stroke-width:3px;}.cls-10,.cls-3{fill:#754c24;}.cls-5,.cls-6{stroke-width:4px;}.cls-6,.cls-9{fill:none;}.cls-8{fill:#f0f;}</style></defs><title>logo</title><path class="cls-1" d="M446.5,370.5S391.11,393,364.8,442.76l6.7,123.74s53-70,109-77h29S456.5,402.5,446.5,370.5Z" transform="translate(-231.22 -265)"/><path class="cls-1" d="M364.5,442.5s-62-50-109-21l-21,103s71-21,104,8,30,34,30,34Z" transform="translate(-231.22 -265)"/><path class="cls-2" d="M307.5,348.5s40,18,60-9l42,48s-45,39-42,54c0,0-19-18-32-18l-39-12Z" transform="translate(-231.22 -265)"/><ellipse class="cls-3" cx="103.34" cy="46.75" rx="47.56" ry="45.25"/><path class="cls-4" d="M287.5,318.5" transform="translate(-231.22 -265)"/><ellipse class="cls-5" cx="90.78" cy="49.75" rx="1" ry="2.75"/><path class="cls-6" d="M287,339" transform="translate(-231.22 -265)"/><path class="cls-6" d="M311,326s23,32,47-3" transform="translate(-231.22 -265)"/><ellipse class="cls-5" cx="112.31" cy="49.35" rx="1" ry="2.75"/><path class="cls-7" d="M299.52,281.16s2,20.34,4,18.34,1,8,7,0c0,0,12,3,11,0,0,0,10,1,9-8,0,0,10,13,12,7,0,0,5-1,5-7,0,0,4,7,6,0,0,0,12,2,5-10,0,0,11,13,8,0S321.53,257.83,299.52,281.16Z" transform="translate(-231.22 -265)"/><path class="cls-3" d="M387.74,305.5l-5.26-7s-.75,24,3,20S387.74,305.5,387.74,305.5Z" transform="translate(-231.22 -265)"/><path class="cls-3" d="M280.58,311.9l4.21-7.68s4.18,23.65-.12,20.23S280.58,311.9,280.58,311.9Z" transform="translate(-231.22 -265)"/><path class="cls-8" d="M641.5,413.5" transform="translate(-231.22 -265)"/><path class="cls-9" d="M307.5,348.5c-.11.22-23.16,36.31-20,41,0,0-6,22,0,24" transform="translate(-231.22 -265)"/><path class="cls-9" d="M370.5,339.5s38-6,44,18c0,0,3,20,0,38l-5,22" transform="translate(-231.22 -265)"/><path class="cls-9" d="M255.5,494.5s75-6,97,23" transform="translate(-231.22 -265)"/><path class="cls-9" d="M259.13,475.22s75-6,97,23" transform="translate(-231.22 -265)"/><path class="cls-9" d="M262.13,457.22s75-6,97,23" transform="translate(-231.22 -265)"/><path class="cls-9" d="M262.13,442.22s75-6,97,23" transform="translate(-231.22 -265)"/><path class="cls-9" d="M471.08,471s-74.28,12-88.77,45.35" transform="translate(-231.22 -265)"/><path class="cls-9" d="M465.87,448.53s-74.29,12-88.78,45.35" transform="translate(-231.22 -265)"/><path class="cls-9" d="M459.87,425.53s-74.29,12-88.78,45.35" transform="translate(-231.22 -265)"/><path class="cls-9" d="M447.46,411.87s-63.9,10.29-76.37,39" transform="translate(-231.22 -265)"/><path class="cls-10" d="M307.5,413.5s16-10,26,0S311.5,437.5,307.5,413.5Z" transform="translate(-231.22 -265)"/><path class="cls-10" d="M412.33,412.29s8.74,16.73-2,25.93S388.1,414.43,412.33,412.29Z" transform="translate(-231.22 -265)"/></svg>